<svg width="25" height="24" viewBox="0 0 25 24" fill="none" xmlns="http://www.w3.org/2000/svg">
<rect x="3.16797" y="6" width="17.8925" height="15" rx="2" stroke="white" stroke-width="2"/>
<path d="M3.16797 10C3.16797 8.11438 3.16797 7.17157 3.75376 6.58579C4.33954 6 5.28235 6 7.16797 6H17.0605C18.9461 6 19.8889 6 20.4747 6.58579C21.0605 7.17157 21.0605 8.11438 21.0605 10V10H3.16797V10Z" fill="white"/>
<path d="M7.14453 3L7.14453 6" stroke="white" stroke-width="2" stroke-linecap="round"/>
<path d="M17.084 3L17.084 6" stroke="white" stroke-width="2" stroke-linecap="round"/>
<rect x="7.14453" y="12" width="3.97612" height="2" rx="0.5" fill="white"/>
<rect x="7.14453" y="16" width="3.97612" height="2" rx="0.5" fill="white"/>
<rect x="13.1074" y="12" width="3.97612" height="2" rx="0.5" fill="white"/>
<rect x="13.1074" y="16" width="3.97612" height="2" rx="0.5" fill="white"/>
</svg>
