<svg width="28" height="28" viewBox="0 0 28 28" fill="none" xmlns="http://www.w3.org/2000/svg">
<path fill-rule="evenodd" clip-rule="evenodd" d="M16.4213 2.90128C15.8038 0.36624 12.1962 0.36624 11.5787 2.90128C11.4865 3.28221 11.3056 3.63599 11.0509 3.93384C10.7961 4.23168 10.4747 4.46517 10.1126 4.61531C9.75059 4.76544 9.35821 4.82798 8.96744 4.79783C8.57667 4.76768 8.19853 4.6457 7.86381 4.4418C5.63424 3.08328 3.08291 5.63457 4.44145 7.86411C5.31898 9.30388 4.54058 11.1824 2.90253 11.5805C0.365824 12.1964 0.365824 15.8056 2.90253 16.4199C3.28357 16.5122 3.63742 16.6932 3.93527 16.9481C4.23311 17.2031 4.46654 17.5247 4.61653 17.887C4.76653 18.2492 4.82885 18.6417 4.79842 19.0326C4.768 19.4235 4.64569 19.8016 4.44145 20.1363C3.08291 22.3658 5.63424 24.9171 7.86381 23.5586C8.19847 23.3544 8.57664 23.2321 8.96752 23.2016C9.3584 23.1712 9.75094 23.2335 10.1132 23.3835C10.4754 23.5335 10.7971 23.7669 11.052 24.0648C11.307 24.3626 11.488 24.7165 11.5803 25.0975C12.1962 27.6342 15.8054 27.6342 16.4197 25.0975C16.5123 24.7167 16.6935 24.3631 16.9485 24.0654C17.2035 23.7678 17.5251 23.5345 17.8873 23.3846C18.2494 23.2346 18.6418 23.1722 19.0326 23.2025C19.4233 23.2327 19.8014 23.3547 20.1362 23.5586C22.3658 24.9171 24.9171 22.3658 23.5585 20.1363C23.3547 19.8016 23.2327 19.4234 23.2024 19.0327C23.1722 18.6419 23.2346 18.2495 23.3845 17.8874C23.5345 17.5253 23.7677 17.2037 24.0654 16.9487C24.363 16.6937 24.7166 16.5125 25.0975 16.4199C27.6342 15.804 27.6342 12.1948 25.0975 11.5805C24.7164 11.4882 24.3626 11.3072 24.0647 11.0523C23.7669 10.7973 23.5335 10.4757 23.3835 10.1134C23.2335 9.7512 23.1711 9.35867 23.2016 8.9678C23.232 8.57693 23.3543 8.19876 23.5585 7.86411C24.9171 5.63457 22.3658 3.08328 20.1362 4.4418C19.8015 4.64604 19.4234 4.76835 19.0325 4.79877C18.6416 4.8292 18.2491 4.76687 17.8868 4.61688C17.5246 4.46689 17.2029 4.23347 16.948 3.93563C16.693 3.63778 16.512 3.28394 16.4197 2.9029L16.4213 2.90128Z" stroke="#878489" stroke-width="2"/>
<path d="M16.8889 14C16.8889 15.5955 15.5955 16.8889 14 16.8889C12.4045 16.8889 11.1111 15.5955 11.1111 14C11.1111 12.4045 12.4045 11.1111 14 11.1111C15.5955 11.1111 16.8889 12.4045 16.8889 14Z" stroke="#878489" stroke-width="2"/>
</svg>
